# xmcd
#
# Track frame offsets: 
#        150
#        7147
#        24755
#        44330
#        64707
#        84252
#        101502
#        117960
#        123802
#        139932
#        160817
#        177537
#        193707
#        209442
#
# Disc length: 3052 seconds
#
# Revision: 6
# Processed by: cddbd v1.5.2PL0 Copyright (c) Steve Scherf et al.
# Submitted via: ExactAudioCopyFreeDBPlugin 1.0
#
DISCID=b90bea0e
DTITLE=서진영 - First
DYEAR=2001
DGENRE=Rhythmic Soul
TTITLE0=Prologue
TTITLE1=For You
TTITLE2=Love Letter
TTITLE3=첫느낌
TTITLE4=처음이예요
TTITLE5=놔
TTITLE6=거울아 거울아
TTITLE7=Interlude
TTITLE8=You
TTITLE9=웃음속에 가려진 눈물
TTITLE10=가지마
TTITLE11=To My Best Friend
TTITLE12=비켜!!
TTITLE13=Instrument (Love Letter)
EXTD=2001³â
EXTT0=
EXTT1=
EXTT2=
EXTT3=
EXTT4=
EXTT5=
EXTT6=
EXTT7=
EXTT8=
EXTT9=
EXTT10=
EXTT11=
EXTT12=
EXTT13=
PLAYORDER=
